<svg width="26" height="30" viewBox="0 0 26 30" fill="none" xmlns="http://www.w3.org/2000/svg">
<path d="M25.9292 4.63546V21.1146C25.9292 24.0021 23.5812 26.35 20.6938 26.35C19.3064 26.3462 17.977 25.7934 16.996 24.8124C16.015 23.8314 15.4622 22.502 15.4583 21.1146C15.4583 18.2417 17.8208 15.8938 20.6938 15.8938C21.9188 15.8938 23.0125 16.3167 23.9021 17.0167V8.33963L10.4708 12.1605V23.9292C10.467 25.3166 9.91416 26.646 8.93317 27.627C7.95217 28.608 6.62275 29.1608 5.23542 29.1646C2.34792 29.1646 0 26.8167 0 23.9292C0 21.0563 2.34792 18.7084 5.23542 18.7084C6.44583 18.7084 7.53958 19.1313 8.42917 19.8167V6.92505C8.42917 4.7813 9.72708 3.1188 11.7833 2.56463L20.2125 0.260465C21.9188 -0.206202 23.3625 -0.0457847 24.3833 0.741715C25.4187 1.51463 25.9292 2.82713 25.9292 4.63546Z" fill="black"/>
</svg>
